<svg id="Group_50" data-name="Group 50" xmlns="http://www.w3.org/2000/svg" xmlns:xlink="http://www.w3.org/1999/xlink" width="13.795" height="25.606" viewBox="0 0 13.795 25.606">
  <defs>
    <clipPath id="clip-path">
      <rect id="Rectangle_39" data-name="Rectangle 39" width="13.795" height="25.606" fill="#3d2318"/>
    </clipPath>
  </defs>
  <g id="Group_48" data-name="Group 48" transform="translate(0)" clip-path="url(#clip-path)">
    <path id="Path_40" data-name="Path 40" d="M.792,0,.61.076a.977.977,0,0,0-.377,1.54c.069.083.147.159.224.236Q5.823,7.219,11.191,12.584a1.743,1.743,0,0,0,.244.173q0,.052,0,.1a1.7,1.7,0,0,0-.244.172Q5.8,18.425.4,23.818a1.059,1.059,0,0,0-.376.956.973.973,0,0,0,1.554.632,2.28,2.28,0,0,0,.241-.218L13.37,13.641a1.023,1.023,0,0,0,0-1.662Q7.593,6.2,1.815.435A4.27,4.27,0,0,0,1.192,0Z" transform="translate(0)" fill="#3d2318"/>
  </g>
</svg>
